<svg width="104" height="104" viewBox="0 0 104 104" fill="none" xmlns="http://www.w3.org/2000/svg">
<path d="M52 104C80.7188 104 104 80.7188 104 52C104 23.2812 80.7188 0 52 0C23.2812 0 0 23.2812 0 52C0 80.7188 23.2812 104 52 104Z" fill="#00A872"/>
<mask id="mask0_23_47" style="mask-type:alpha" maskUnits="userSpaceOnUse" x="0" y="0" width="104" height="104">
<path d="M0 51.8835C0 80.405 23.1212 103.526 51.6427 103.526C80.1643 103.526 103.285 80.405 103.285 51.8835C103.285 23.3622 80.1643 0.240967 51.6427 0.240967C23.1212 0.240967 0 23.3622 0 51.8835Z" fill="white"/>
</mask>
<g mask="url(#mask0_23_47)">
<path fill-rule="evenodd" clip-rule="evenodd" d="M55.1069 45.4276L55.5275 44.753L56.0945 44.6216L56.4999 44.7966L56.463 45.2521L55.5973 45.8652H55.1069V45.4276ZM56.5909 43.8315L56.7844 43.5349L57.4754 43.394L57.6509 44.2362L58.0187 44.8313L58.2633 45.1129L58.7106 45.287L58.29 45.7868L57.4754 45.8652H56.8629L56.931 45.1387L57.4421 45.0325L57.3978 44.6914L56.9233 44.3938L56.5909 44.1661V43.8315ZM45.3646 47.3588L45.0652 47.3846L45.0047 47.6746L44.7731 47.8184L44.4026 47.8494C44.3904 47.7625 44.3819 47.6963 44.3819 47.7199H44.349V47.3489H44.8422L44.9669 47.0632L45.2079 47.0584L45.4829 47.1152L45.3646 47.3588ZM43.8246 47.8976L43.3867 47.9344L43.4106 47.6294L43.607 47.3846L43.8696 47.5914L43.8246 47.8976Z" fill="#FEFEFE"/>
</g>
<mask id="mask1_23_47" style="mask-type:alpha" maskUnits="userSpaceOnUse" x="0" y="0" width="104" height="104">
<path d="M0 51.8835C0 80.405 23.1212 103.526 51.6427 103.526C80.1643 103.526 103.285 80.405 103.285 51.8835C103.285 23.3622 80.1643 0.240967 51.6427 0.240967C23.1212 0.240967 0 23.3622 0 51.8835Z" fill="white"/>
</mask>
<g mask="url(#mask1_23_47)">
<path fill-rule="evenodd" clip-rule="evenodd" d="M69.3336 61.62C69.2522 62.0784 69.1586 62.531 69.05 62.9816C68.6229 64.7573 67.9886 66.4517 67.1741 68.0413C63.3656 75.4768 55.6289 80.5798 46.7177 80.5798C34.0492 80.5798 23.7419 70.2734 23.7419 57.6037C23.7419 52.3276 25.5337 47.4647 28.5348 43.5827C29.3307 42.5545 30.2077 41.5945 31.1617 40.7146C35.2577 36.9393 40.7206 34.6289 46.7169 34.6289C52.6625 34.6289 58.0871 36.8988 62.1713 40.6173C62.5324 40.9471 62.8808 41.2911 63.2202 41.6436C63.3401 41.7663 63.4602 41.8913 63.5784 42.0177C65.3748 43.958 66.8424 46.2061 67.8877 48.6754C67.95 48.8198 68.004 48.9683 68.0625 49.115C68.8468 51.0825 69.3704 53.1811 69.583 55.3706C69.6463 56.0276 69.6802 56.6947 69.687 57.3666C69.6879 57.446 69.6925 57.5243 69.6917 57.6037C69.6917 58.9731 69.5652 60.3149 69.3336 61.62ZM79.9358 21.0725C62.2808 21.0725 37.3382 22.5497 24.5917 35.2895C15.1792 44.7022 14.8732 62.7763 20.5675 74.0071C16.3875 79.8679 10.0919 91.8662 6.63867 100.597L13.656 102.1C15.8903 95.1342 19.4013 88.1056 24.7359 79.8388C31.0221 85.0942 39.0371 87.8304 47.229 87.5069C55.2312 87.8405 63.0495 85.0489 69.0312 79.7225C81.7775 66.9765 83.2482 42.0338 83.2482 24.3784C83.2445 22.5516 81.763 21.0725 79.9358 21.0725Z" fill="#FEFEFE"/>
</g>
<mask id="mask2_23_47" style="mask-type:alpha" maskUnits="userSpaceOnUse" x="0" y="0" width="104" height="104">
<path d="M51.6427 103.526C80.1643 103.526 103.285 80.405 103.285 51.8835C103.285 23.3622 80.1643 0.240967 51.6427 0.240967C23.1212 0.240967 0 23.3622 0 51.8835C0 80.405 23.1212 103.526 51.6427 103.526Z" fill="white"/>
</mask>
<g mask="url(#mask2_23_47)">
<path fill-rule="evenodd" clip-rule="evenodd" d="M65.1853 49.9456L64.6619 49.3712L64.5613 48.4475L64.0259 48.7402L63.7375 49.8695L62.9635 49.0455L62.9327 48.2671L62.1857 47.6234L61.9083 47.349H60.8652L61.144 48.1333L62.2021 48.7234L62.3862 48.9181L62.1578 49.0329L62.1686 49.6543L61.6529 49.8693L61.2131 49.7725L60.9379 49.3827L61.6529 49.421L61.847 49.1605L60.2605 48.0904L60.1401 47.6347L59.4952 48.2178L58.8406 48.0839L57.8461 49.3765L57.6518 49.8828L57.0151 49.9403L55.9695 49.9456L55.3961 49.6772L55.2271 48.5363L55.4341 47.9927L56.4108 47.7787L57.4756 47.9927L57.6068 47.4026L57.1542 47.2955L57.3092 46.3776L58.3815 46.2093L59.1316 45.15L59.9063 45.02L60.6052 45.1233H60.7075L60.5669 44.1276L59.7147 44.4709L59.4169 43.7265L58.9229 43.6577L58.83 43.1468L59.2337 42.7084L60.1914 42.3336L60.4377 41.8926C56.7782 38.6683 51.9814 36.7061 46.7316 36.7061C42.177 36.7061 37.9628 38.1837 34.5356 40.6802L35.3946 40.6718L35.8681 40.809L36.7613 41.0018L36.8301 41.3526L38.2505 41.4053L38.0577 40.9498L36.7962 40.9147L37.0921 40.64L36.9881 40.3008H35.8484L37.0921 39.1878H38.2837L38.8439 40.1486L39.7739 40.2014L40.3341 39.6571L40.7557 39.8679L39.9836 40.6219C39.9836 40.6219 38.9159 40.64 38.9677 40.64C39.0197 40.64 39.0555 41.375 39.0555 41.375L40.3515 41.3391L40.4911 40.9896L41.3842 40.9366L41.489 40.4113L40.9637 40.3222L41.1384 39.8496L41.541 39.7281L42.9423 39.7981L42.1703 40.4992L42.2942 41.0416L43.1002 41.1643L43.0475 40.1836L43.8186 39.7798L45.1851 39.6221L46.9453 40.4992V41.4024L47.5679 41.5604L47.2566 42.1557H46.3765L46.1155 42.8387L44.1017 42.357L45.6843 41.5016L45.0806 40.9821L43.7161 41.1566L43.5966 41.2816L43.5923 41.2796L43.5709 41.3097L43.1787 41.7238L42.5294 41.7794L42.5814 42.1083L42.8087 42.2039L42.7996 42.3124L42.2711 42.389L42.2321 42.6998L41.7273 42.7265L41.6361 42.1083L40.7297 42.388L38.8769 43.4882L39.0856 44.2622L39.6035 44.604L40.6391 44.7497V45.9491L41.1664 45.8718L41.6522 44.9524L42.865 44.6033V43.1921L43.5398 42.7296L45.1696 43.0787L45.0548 44.0104H45.4915L46.6892 43.4762L46.7465 44.7001L47.6201 45.183L47.5831 45.9089L46.7475 46.1679L46.8048 46.4079L47.8115 46.8239L47.7923 47.3237L47.5 47.3461C47.4978 47.3367 47.4969 47.3321 47.4969 47.3321L46.2267 46.9765L46.1723 46.607H45.8663L46.2036 46.2269V45.8848L45.8399 45.7921L45.7484 46.1077L45.1018 46.2069L45.0907 46.1852V46.2172L44.8146 46.2512L44.6321 45.8829L44.4214 45.865H44.1927L43.978 46.0287V46.3908L44.3829 46.5167L44.7823 46.5692L44.693 46.6063L44.3285 46.9826L44.1674 46.7945L43.8157 46.7076L42.8559 47.5493L42.9813 47.6451L41.5636 48.3762L40.2311 49.6685L40.1394 50.2439L38.8025 51.0622L38.14 51.6828L38.213 52.9243L37.2941 52.5263L37.3008 51.7995L34.7331 51.8003L33.4316 52.4592L32.8661 53.5013L32.6425 54.3271L33.0084 55.1283L34.0339 55.2534L35.664 54.1639L35.8063 54.7034L35.3087 55.643L36.5492 55.8551L36.6725 57.7704L38.3721 58.0588L39.4521 56.8108L40.7634 57.0773L41.2234 57.7179L42.4803 57.6435L42.5155 57.2711L43.2059 57.6081L43.9833 58.8284L44.9852 58.8484L45.4698 59.7447L45.5392 60.8401L46.9921 61.4258L48.8243 61.4455L49.3605 62.375L50.1727 62.65L50.017 63.4179L49.1262 64.6139L48.8672 67.2618L48.0641 67.9342L46.8717 67.8957L46.4733 68.6261L46.7679 69.9983L45.4708 71.7531L45.056 72.5577L43.8193 73.1855L43.0061 73.3157L42.9726 73.6805L43.5434 73.8531L43.4743 74.2455L42.9633 74.765L43.2738 75.1772L43.8891 75.1969L43.8547 75.6996L43.6917 76.1924L43.6395 76.5946L44.5497 77.4052L44.4284 77.826L43.19 77.8022L41.9582 76.6645L40.9983 74.8813L41.1329 73.16L40.4063 72.1356L40.7003 70.3987L40.2684 70.2706V66.5057C40.2684 66.5057 39.058 65.5367 38.9889 65.5367C38.9193 65.5367 38.3483 65.373 38.3483 65.373L38.2279 64.6592L36.6537 62.5761L36.8097 61.8269L36.861 60.6025L37.9491 59.7979L37.7936 58.4267L36.2035 58.2995L34.9586 56.8L34.0773 56.5457L33.5067 56.4352L33.5758 55.8873L32.8495 55.7778V56.1396L30.9869 55.6844L30.2372 54.5512L30.5413 54.0023L29.3619 52.3022L29.1601 51.0585H28.682L28.8419 52.2673L29.6578 53.511L29.5687 54.0023L28.8773 53.8974L28.0267 52.4637V50.9736L27.6558 50.552V49.3519C27.6558 49.3519 27.7997 48.2907 28.071 47.7784L28.9461 46.7153L28.9119 46.3326C28.6125 46.8022 28.3318 47.2842 28.0701 47.7784L27.9998 47.8605C27.7446 48.3478 27.5026 48.8432 27.2848 49.3519C26.2337 51.8872 25.6328 54.6769 25.6328 57.6038C25.6328 69.2299 35.0913 78.6893 46.7169 78.6886C58.1788 78.3687 63.2257 70.6637 63.2257 70.6637L62.5258 70.7191V69.3317L61.7839 68.259V66.589L61.2186 65.983L61.1698 65.2882L61.8874 63.8139L60.5248 61.2272L60.6873 59.4719L59.4598 59.3354L59.0079 58.8484H57.6626L57.2084 59.2194H55.6318H55.5793H54.702L52.5098 57.1755V55.1844L52.8589 55.0652L52.9889 54.3971H52.493L52.2898 53.6959L54.7357 52.0533V50.8895L55.9322 50.2716L56.4151 50.3166H57.1768L57.9157 49.889L60.3 49.6892V51.0017L62.1816 51.5155L62.5528 51.8003H62.8968V51.0867L63.983 50.9731L65.0154 51.8003H66.8366L66.9574 51.6888C66.7809 51.0898 66.5797 50.5027 66.3551 49.9256L65.1853 49.9456Z" fill="#FEFEFE"/>
</g>
</svg>