<svg width="104" height="104" viewBox="0 0 104 104" fill="none" xmlns="http://www.w3.org/2000/svg">
<path d="M52 104C80.7188 104 104 80.7188 104 52C104 23.2812 80.7188 0 52 0C23.2812 0 0 23.2812 0 52C0 80.7188 23.2812 104 52 104Z" fill="#74B959"/>
<path fill-rule="evenodd" clip-rule="evenodd" d="M48.7581 24.5268C48.7581 23.3537 49.7107 22.3989 50.8859 22.3989C52.0653 22.3989 53.0179 23.3537 53.0179 24.5268V34.3007C55.7573 31.3471 57.3152 27.4575 57.3152 23.3141C57.3152 18.189 54.9357 13.457 50.8859 10.3994C46.8403 13.457 44.4629 18.189 44.4629 23.3141C44.4629 27.4575 46.0187 31.345 48.7581 34.3007V24.5268Z" fill="#FEFEFE"/>
<path fill-rule="evenodd" clip-rule="evenodd" d="M56.7401 36.5234C54.4459 39.2815 53.1605 42.6782 53.0273 46.2058L60.4592 38.7782C61.2912 37.9482 62.639 37.9482 63.471 38.7782C64.3051 39.6081 64.3051 40.958 63.471 41.79L56.0392 49.2198C60.0661 49.0658 63.9182 47.4164 66.8489 44.4857C70.4765 40.8623 72.1405 35.835 71.4416 30.8138C66.4163 30.115 61.3848 31.779 57.7614 35.4023C57.4661 35.6977 57.1853 36.0034 56.9149 36.3175C56.8587 36.3882 56.7984 36.4548 56.7401 36.5234Z" fill="#FEFEFE"/>
<path fill-rule="evenodd" clip-rule="evenodd" d="M45.7344 49.2187L38.3026 41.791C37.4706 40.957 37.4706 39.6091 38.3026 38.7771C39.1346 37.9472 40.4845 37.9472 41.3144 38.7771L48.7483 46.2069C48.6152 42.6771 47.3277 39.2826 45.0335 36.5224C44.9773 36.4538 44.9149 36.3872 44.8587 36.3165C44.5904 36.0024 44.3075 35.6987 44.0122 35.4013C40.3888 31.7779 35.3573 30.1118 30.332 30.8128C29.6331 35.8339 31.2992 40.8613 34.9226 44.4867C37.8554 47.4174 41.7075 49.0669 45.7344 49.2187Z" fill="#FEFEFE"/>
<mask id="mask0_23_68" style="mask-type:alpha" maskUnits="userSpaceOnUse" x="12" y="54" width="78" height="6">
<path d="M12.4805 54.3889H89.1815V59.2769H12.4805V54.3889Z" fill="white"/>
</mask>
<g mask="url(#mask0_23_68)">
<path fill-rule="evenodd" clip-rule="evenodd" d="M84.4693 57.6117C82.9654 57.021 81.497 56.3034 79.8954 55.7564C78.2979 55.1968 76.5029 54.9972 74.7973 55.0908C73.0813 55.1927 71.4318 55.5608 69.8282 55.9103C66.6333 56.6216 63.5403 57.3975 60.6595 56.6986C59.1952 56.37 57.7038 55.7959 56.0981 55.2738C55.2973 55.018 54.459 54.7767 53.5792 54.6124C52.7035 54.448 51.7758 54.3628 50.8856 54.396C49.0926 54.446 47.3954 54.8204 45.7875 55.2364C44.1776 55.6565 42.6259 56.11 41.1034 56.4324C39.585 56.7485 38.079 56.9108 36.6293 56.7132C35.1816 56.5156 33.6632 55.9456 31.9909 55.5525C28.6067 54.7392 25.1227 55.018 21.8966 55.8354C20.2825 56.2472 18.708 56.8338 17.2 57.412C15.6961 57.9549 14.1091 58.4354 12.4805 58.113C14.0425 58.7037 15.8064 58.4541 17.3997 58.0818C19.0096 57.6887 20.5529 57.2685 22.1462 57.046C25.3016 56.5364 28.5277 56.578 31.4834 57.4536C32.9643 57.8946 34.4952 58.5893 36.284 58.8992C38.0749 59.2112 39.8741 59.0677 41.5547 58.7807C44.9098 58.1712 47.9694 56.9565 50.948 56.9253C52.4186 56.865 53.835 57.1541 55.3555 57.6346C56.8656 58.0901 58.4318 58.71 60.1728 59.0448C61.9325 59.3943 63.7691 59.3152 65.4518 59.0324C67.1574 58.7599 68.7549 58.2752 70.3149 57.826C71.877 57.3746 73.4162 56.9648 74.9554 56.7423C76.4987 56.5322 78.0192 56.5717 79.5584 56.9544C81.1038 57.2935 82.6451 57.8717 84.253 58.2794C85.8525 58.6975 87.5747 58.9159 89.1826 58.5394C87.5352 58.6434 85.9648 58.1983 84.4693 57.6117Z" fill="#FEFEFE"/>
</g>
<path fill-rule="evenodd" clip-rule="evenodd" d="M46.9747 63.551C45.5062 63.551 44.3164 64.7429 44.3164 66.2113C44.3164 67.6798 45.5062 68.8717 46.9747 68.8717C48.4431 68.8717 49.635 67.6798 49.635 66.2113C49.635 64.7429 48.4431 63.551 46.9747 63.551Z" fill="#FEFEFE"/>
<path fill-rule="evenodd" clip-rule="evenodd" d="M54.7051 63.551C53.2366 63.551 52.0469 64.7429 52.0469 66.2113C52.0469 67.6798 53.2366 68.8717 54.7051 68.8717C56.1736 68.8717 57.3654 67.6798 57.3654 66.2113C57.3654 64.7429 56.1736 63.551 54.7051 63.551Z" fill="#FEFEFE"/>
<path fill-rule="evenodd" clip-rule="evenodd" d="M46.9747 71.2842C45.5062 71.2842 44.3164 72.4739 44.3164 73.9424C44.3164 75.4109 45.5062 76.6048 46.9747 76.6048C48.4431 76.6048 49.635 75.4109 49.635 73.9424C49.635 72.4739 48.4431 71.2842 46.9747 71.2842Z" fill="#FEFEFE"/>
<path fill-rule="evenodd" clip-rule="evenodd" d="M54.7051 71.2842C53.2366 71.2842 52.0469 72.4739 52.0469 73.9424C52.0469 75.4109 53.2366 76.6048 54.7051 76.6048C56.1736 76.6048 57.3654 75.4109 57.3654 73.9424C57.3654 72.4739 56.1736 71.2842 54.7051 71.2842Z" fill="#FEFEFE"/>
<path fill-rule="evenodd" clip-rule="evenodd" d="M46.9747 79.0151C45.5062 79.0151 44.3164 80.2049 44.3164 81.6734C44.3164 83.1439 45.5062 84.3358 46.9747 84.3358C48.4431 84.3358 49.635 83.1439 49.635 81.6734C49.635 80.2049 48.4431 79.0151 46.9747 79.0151Z" fill="#FEFEFE"/>
<path fill-rule="evenodd" clip-rule="evenodd" d="M39.1759 71.2842C37.7054 71.2842 36.5156 72.4739 36.5156 73.9424C36.5156 75.4109 37.7054 76.6048 39.1759 76.6048C40.6444 76.6048 41.8342 75.4109 41.8342 73.9424C41.8342 72.4739 40.6444 71.2842 39.1759 71.2842Z" fill="#FEFEFE"/>
<path fill-rule="evenodd" clip-rule="evenodd" d="M39.1759 79.0151C37.7054 79.0151 36.5156 80.2049 36.5156 81.6734C36.5156 83.1439 37.7054 84.3358 39.1759 84.3358C40.6444 84.3358 41.8342 83.1439 41.8342 81.6734C41.8342 80.2049 40.6444 79.0151 39.1759 79.0151Z" fill="#FEFEFE"/>
<path fill-rule="evenodd" clip-rule="evenodd" d="M54.7051 79.0151C53.2366 79.0151 52.0469 80.2049 52.0469 81.6734C52.0469 83.1439 53.2366 84.3358 54.7051 84.3358C56.1736 84.3358 57.3654 83.1439 57.3654 81.6734C57.3654 80.2049 56.1736 79.0151 54.7051 79.0151Z" fill="#FEFEFE"/>
<path fill-rule="evenodd" clip-rule="evenodd" d="M62.506 71.2842C61.0355 71.2842 59.8457 72.4739 59.8457 73.9424C59.8457 75.4109 61.0355 76.6048 62.506 76.6048C63.9745 76.6048 65.1643 75.4109 65.1643 73.9424C65.1643 72.4739 63.9745 71.2842 62.506 71.2842Z" fill="#FEFEFE"/>
<path fill-rule="evenodd" clip-rule="evenodd" d="M62.506 79.0151C61.0355 79.0151 59.8457 80.2049 59.8457 81.6734C59.8457 83.1439 61.0355 84.3358 62.506 84.3358C63.9745 84.3358 65.1643 83.1439 65.1643 81.6734C65.1643 80.2049 63.9745 79.0151 62.506 79.0151Z" fill="#FEFEFE"/>
<mask id="mask1_23_68" style="mask-type:alpha" maskUnits="userSpaceOnUse" x="44" y="86" width="6" height="7">
<path d="M44.3164 86.7461H49.635V92.0661H44.3164V86.7461Z" fill="white"/>
</mask>
<g mask="url(#mask1_23_68)">
<path fill-rule="evenodd" clip-rule="evenodd" d="M46.9746 86.7461C45.5062 86.7461 44.3164 87.9359 44.3164 89.4064C44.3164 90.8749 45.5062 92.0667 46.9746 92.0667C48.4431 92.0667 49.635 90.8749 49.635 89.4064C49.635 87.9359 48.4431 86.7461 46.9746 86.7461Z" fill="#FEFEFE"/>
</g>
<mask id="mask2_23_68" style="mask-type:alpha" maskUnits="userSpaceOnUse" x="52" y="86" width="6" height="7">
<path d="M52.0469 86.7461H57.3654V92.0661H52.0469V86.7461Z" fill="white"/>
</mask>
<g mask="url(#mask2_23_68)">
<path fill-rule="evenodd" clip-rule="evenodd" d="M54.7051 86.7461C53.2366 86.7461 52.0469 87.9359 52.0469 89.4064C52.0469 90.8749 53.2366 92.0667 54.7051 92.0667C56.1736 92.0667 57.3654 90.8749 57.3654 89.4064C57.3654 87.9359 56.1736 86.7461 54.7051 86.7461Z" fill="#FEFEFE"/>
</g>
</svg>