<svg width="102" height="102" viewBox="0 0 102 102" fill="none" xmlns="http://www.w3.org/2000/svg">
<path d="M51 102C79.1665 102 102 79.1665 102 51C102 22.8335 79.1665 0 51 0C22.8335 0 0 22.8335 0 51C0 79.1665 22.8335 102 51 102Z" fill="#EB5B47"/>
<mask id="mask0_23_102" style="mask-type:alpha" maskUnits="userSpaceOnUse" x="18" y="14" width="64" height="74">
<path d="M18.7344 14.5715H81.1833V87.4287H18.7344V14.5715Z" fill="white"/>
</mask>
<g mask="url(#mask0_23_102)">
<path fill-rule="evenodd" clip-rule="evenodd" d="M66.3857 49.4578C66.3857 52.886 63.6601 55.6658 60.2976 55.6658H56.6339L40.6927 38.596L40.7094 36.0765C40.7094 32.6484 43.4349 29.8685 46.7975 29.8685H60.3864C63.7489 29.8685 66.4731 32.6484 66.4731 36.0765L66.3857 49.4578ZM78.1317 14.5718C77.997 14.5651 68.7809 14.6727 68.7809 14.6727C67.1434 14.6925 65.825 16.3301 65.8472 18.0074C65.868 19.6677 67.1961 21.2628 68.817 21.2628H68.8559L70.5725 20.9741L67.6721 23.8134C67.2086 23.6973 66.7243 23.628 66.2261 23.628H40.8704C37.5078 23.628 34.7836 26.4079 34.7836 29.8374V33.1778C34.7795 33.1749 34.7753 33.1721 34.7698 33.1707V43.5414C34.7753 43.54 34.7795 43.54 34.7836 43.5386V55.697C34.7836 59.1265 37.5078 61.905 40.8704 61.905H51.4034C51.2716 61.3034 50.9261 60.6693 50.3432 60.0451L46.2327 55.6418C43.0935 55.3927 40.6233 52.7218 40.6233 49.4578L40.633 47.6475L51.3007 59.0713C51.4187 59.1959 51.5256 59.3233 51.6241 59.4507C51.6616 59.4974 51.6921 59.5441 51.7268 59.5922C51.7837 59.6715 51.842 59.7493 51.8919 59.8286C51.9294 59.8894 51.9613 59.9503 51.996 60.0112C52.0321 60.0748 52.0709 60.1385 52.1015 60.2022C52.1348 60.2716 52.1639 60.341 52.1917 60.4103C52.2139 60.4627 52.2389 60.5165 52.2569 60.5702C52.2847 60.6453 52.3055 60.7217 52.3249 60.7967C52.3374 60.8406 52.3513 60.8859 52.361 60.9298C52.3776 61.0104 52.3901 61.0897 52.3998 61.169C52.4054 61.2058 52.4096 61.2426 52.4123 61.2794C52.4193 61.3643 52.4207 61.4464 52.4193 61.5285C52.4193 61.5582 52.4179 61.5879 52.4165 61.6191C52.4109 61.704 52.3998 61.7889 52.3846 61.8724C52.2042 62.8759 51.3354 63.6941 49.845 64.0507L30.8924 68.5843C28.1363 69.2439 26.557 67.5355 27.3661 64.7684L32.8755 45.9165C32.999 45.4919 33.1614 45.1253 33.3459 44.8068V32.8621C31.3226 32.7715 29.5462 34.262 28.6914 37.189L19.1034 69.9983C17.6948 74.8135 20.4426 77.7873 25.24 76.6394L39.5034 73.2269L40.3638 76.7994L37.0846 77.5793C35.4845 77.9586 34.495 79.6047 34.8655 81.2324C35.2402 82.8658 36.8417 83.8934 38.4404 83.5127L41.7211 82.7328L42.2581 85.0909C42.6314 86.7186 44.2426 87.7292 45.8399 87.3484C47.44 86.9677 48.4461 85.3357 48.0742 83.708L47.5344 81.3499L51.0537 80.512C52.6524 80.1327 53.6405 78.4894 53.2686 76.856C52.8953 75.2268 51.2938 74.1978 49.6979 74.5772L46.1771 75.4137L45.3639 71.8256L58.2243 68.7485C62.2224 67.7917 63.6643 64.9368 62.0697 61.905H66.2261C69.5872 61.905 72.3128 59.1265 72.3128 55.697V29.8374C72.3128 29.1962 72.2156 28.5777 72.0394 27.9945L75.3006 24.8438V26.9627C75.3006 28.6371 76.5996 29.9959 78.2399 29.9959C79.883 29.9959 81.1834 28.6371 81.1834 26.9627V17.5799C81.1847 16.7689 81.0501 14.7562 78.1317 14.5718Z" fill="#FEFEFE"/>
</g>
</svg>