<svg width="46" height="46" viewBox="0 0 46 46" fill="none" xmlns="http://www.w3.org/2000/svg">
<path d="M23 46C35.7025 46 46 35.7025 46 23C46 10.2975 35.7025 0 23 0C10.2975 0 0 10.2975 0 23C0 35.7025 10.2975 46 23 46Z" fill="white"/>
<mask id="mask0_74_111" style="mask-type:alpha" maskUnits="userSpaceOnUse" x="0" y="0" width="46" height="46">
<path d="M0 22.9486C0 35.5639 10.2267 45.7905 22.842 45.7905C35.4573 45.7905 45.684 35.5639 45.684 22.9486C45.684 10.3334 35.4573 0.106689 22.842 0.106689C10.2267 0.106689 0 10.3334 0 22.9486Z" fill="white"/>
</mask>
<g mask="url(#mask0_74_111)">
<path fill-rule="evenodd" clip-rule="evenodd" d="M24.3734 20.0931L24.5594 19.7947L24.8102 19.7366L24.9895 19.814L24.9732 20.0154L24.5903 20.2866H24.3734V20.0931ZM25.0297 19.3871L25.1154 19.2559L25.421 19.1936L25.4986 19.5661L25.6613 19.8293L25.7695 19.9539L25.9673 20.0309L25.7813 20.2519L25.421 20.2866H25.1501L25.1802 19.9653L25.4063 19.9183L25.3867 19.7674L25.1768 19.6358L25.0297 19.5351V19.3871ZM20.0643 20.9472L19.9318 20.9586L19.9051 21.0869L19.8027 21.1505L19.6388 21.1643C19.6334 21.1258 19.6296 21.0965 19.6296 21.107H19.6151V20.9429H19.8332L19.8884 20.8165L19.995 20.8144L20.1166 20.8395L20.0643 20.9472ZM19.3831 21.1856L19.1895 21.2018L19.2 21.0669L19.2869 20.9586L19.4031 21.0501L19.3831 21.1856Z" fill="#FEFEFE"/>
</g>
<mask id="mask1_74_111" style="mask-type:alpha" maskUnits="userSpaceOnUse" x="0" y="0" width="46" height="46">
<path d="M0 22.9486C0 35.5639 10.2267 45.7905 22.842 45.7905C35.4573 45.7905 45.684 35.5639 45.684 22.9486C45.684 10.3334 35.4573 0.106689 22.842 0.106689C10.2267 0.106689 0 10.3334 0 22.9486Z" fill="white"/>
</mask>
<g mask="url(#mask1_74_111)">
<path fill-rule="evenodd" clip-rule="evenodd" d="M30.666 27.255C30.63 27.4578 30.5886 27.658 30.5405 27.8573C30.3517 28.6427 30.0711 29.3921 29.7108 30.0952C28.0263 33.384 24.6043 35.6411 20.6628 35.6411C15.0594 35.6411 10.5004 31.0825 10.5004 25.4786C10.5004 23.1449 11.293 20.994 12.6204 19.277C12.9724 18.8222 13.3603 18.3976 13.7823 18.0084C15.594 16.3385 18.0102 15.3166 20.6625 15.3166C23.2922 15.3166 25.6916 16.3207 27.4981 17.9654C27.6578 18.1112 27.8119 18.2634 27.962 18.4193C28.015 18.4736 28.0682 18.5289 28.1204 18.5848C28.915 19.443 29.5641 20.4373 30.0265 21.5295C30.054 21.5934 30.0779 21.6591 30.1038 21.7239C30.4507 22.5942 30.6823 23.5224 30.7763 24.4909C30.8043 24.7815 30.8193 25.0765 30.8223 25.3737C30.8227 25.4088 30.8247 25.4435 30.8244 25.4786C30.8244 26.0843 30.7684 26.6778 30.666 27.255ZM35.3554 9.32056C27.5465 9.32056 16.5142 9.97393 10.8763 15.6088C6.71308 19.7721 6.57775 27.7665 9.09635 32.7339C7.24751 35.3262 4.46292 40.6331 2.93555 44.4948L6.03938 45.1595C7.02763 42.0786 8.58056 38.9698 10.9401 35.3133C13.7205 37.6378 17.2656 38.8481 20.889 38.705C24.4284 38.8526 27.8865 37.6178 30.5322 35.2619C36.17 29.6242 36.8205 18.5919 36.8205 10.7828C36.8189 9.97478 36.1636 9.32056 35.3554 9.32056Z" fill="#00A872"/>
</g>
<mask id="mask2_74_111" style="mask-type:alpha" maskUnits="userSpaceOnUse" x="0" y="0" width="46" height="46">
<path d="M22.842 45.7905C35.4573 45.7905 45.684 35.5639 45.684 22.9486C45.684 10.3334 35.4573 0.106689 22.842 0.106689C10.2267 0.106689 0 10.3334 0 22.9486C0 35.5639 10.2267 45.7905 22.842 45.7905Z" fill="white"/>
</mask>
<g mask="url(#mask2_74_111)">
<path fill-rule="evenodd" clip-rule="evenodd" d="M28.8323 22.0915L28.6008 21.8375L28.5563 21.4289L28.3195 21.5584L28.1919 22.0579L27.8495 21.6934L27.8359 21.3492L27.5055 21.0644L27.3828 20.943H26.9215L27.0448 21.29L27.5127 21.5509L27.5942 21.6371L27.4932 21.6879L27.4979 21.9627L27.2699 22.0578L27.0753 22.015L26.9536 21.8426L27.2699 21.8595L27.3557 21.7443L26.654 21.271L26.6007 21.0694L26.3155 21.3273L26.0259 21.2681L25.5861 21.8398L25.5001 22.0638L25.2185 22.0892L24.756 22.0915L24.5024 21.9728L24.4277 21.4682L24.5192 21.2278L24.9512 21.1331L25.4222 21.2278L25.4802 20.9668L25.28 20.9194L25.3486 20.5134L25.8229 20.439L26.1547 19.9704L26.4973 19.9129L26.8065 19.9586H26.8517L26.7895 19.5182L26.4126 19.67L26.2809 19.3408L26.0624 19.3104L26.0213 19.0844L26.1998 18.8905L26.6234 18.7247L26.7323 18.5296C25.1137 17.1035 22.9921 16.2356 20.67 16.2356C18.6555 16.2356 16.7916 16.8892 15.2757 17.9934L15.6556 17.9897L15.8651 18.0504L16.2601 18.1357L16.2906 18.2908L16.9188 18.3141L16.8335 18.1127L16.2755 18.0971L16.4064 17.9756L16.3604 17.8256H15.8563L16.4064 17.3333H16.9335L17.1813 17.7583L17.5926 17.7816L17.8404 17.5408L18.0268 17.6341L17.6854 17.9676C17.6854 17.9676 17.2131 17.9756 17.236 17.9756C17.259 17.9756 17.2749 18.3007 17.2749 18.3007L17.8481 18.2848L17.9098 18.1302L18.3049 18.1068L18.3512 17.8745L18.1188 17.8351L18.1962 17.626L18.3742 17.5723L18.994 17.6032L18.6525 17.9133L18.7074 18.1532L19.0639 18.2075L19.0405 17.7737L19.3816 17.5952L19.986 17.5254L20.7646 17.9133V18.3128L21.04 18.3827L20.9023 18.646H20.513L20.3975 18.9481L19.5068 18.735L20.2068 18.3567L19.9398 18.1269L19.3362 18.2041L19.2834 18.2594L19.2815 18.2585L19.272 18.2718L19.0986 18.455L18.8114 18.4796L18.8344 18.625L18.9349 18.6673L18.9309 18.7153L18.6971 18.7492L18.6799 18.8867L18.4566 18.8985L18.4162 18.625L18.0153 18.7488L17.1959 19.2354L17.2882 19.5777L17.5172 19.7289L17.9753 19.7934V20.3238L18.2085 20.2897L18.4234 19.883L18.9598 19.7286V19.1044L19.2583 18.8999L19.9792 19.0543L19.9284 19.4664H20.1215L20.6513 19.2301L20.6766 19.7714L21.0631 19.985L21.0467 20.3061L20.6771 20.4206L20.7024 20.5268L21.1477 20.7108L21.1392 20.9319L21.0099 20.9418C21.009 20.9376 21.0085 20.9356 21.0085 20.9356L20.4467 20.7783L20.4227 20.6149H20.2873L20.4365 20.4467V20.2954L20.2756 20.2544L20.2352 20.394L19.9492 20.4379L19.9443 20.4283V20.4425L19.8221 20.4575L19.7414 20.2946L19.6482 20.2867H19.5471L19.4521 20.3591V20.5192L19.6312 20.5749L19.8079 20.5981L19.7683 20.6145L19.6071 20.781L19.5359 20.6978L19.3803 20.6594L18.9558 21.0316L19.0113 21.074L18.3842 21.3974L17.7948 21.969L17.7543 22.2235L17.163 22.5854L16.8699 22.8599L16.9022 23.409L16.4957 23.233L16.4987 22.9116L15.363 22.9119L14.7874 23.2033L14.5372 23.6643L14.4383 24.0295L14.6002 24.3839L15.0538 24.4393L15.7748 23.9573L15.8377 24.1959L15.6176 24.6115L16.1663 24.7053L16.2208 25.5525L16.9726 25.6801L17.4502 25.1281L18.0303 25.246L18.2337 25.5293L18.7897 25.4964L18.8052 25.3317L19.1106 25.4807L19.4544 26.0205L19.8976 26.0293L20.112 26.4258L20.1426 26.9103L20.7852 27.1693L21.5957 27.1781L21.8328 27.5892L22.1921 27.7108L22.1232 28.0505L21.7292 28.5795L21.6146 29.7507L21.2594 30.0481L20.732 30.031L20.5558 30.3541L20.6861 30.961L20.1124 31.7372L19.9289 32.093L19.3819 32.3707L19.0222 32.4283L19.0074 32.5897L19.2599 32.666L19.2293 32.8396L19.0033 33.0694L19.1406 33.2517L19.4128 33.2604L19.3976 33.4827L19.3255 33.7007L19.3024 33.8786L19.705 34.2371L19.6513 34.4233L19.1036 34.4127L18.5587 33.9095L18.1342 33.1208L18.1937 32.3595L17.8723 31.9064L18.0024 31.1381L17.8113 31.0815V29.4162C17.8113 29.4162 17.2759 28.9876 17.2454 28.9876C17.2146 28.9876 16.962 28.9152 16.962 28.9152L16.9088 28.5995L16.2125 27.6781L16.2815 27.3467L16.3042 26.8052L16.7855 26.4493L16.7167 25.8428L16.0134 25.7866L15.4628 25.1233L15.0729 25.0108L14.8206 24.962L14.8511 24.7196L14.5299 24.6712V24.8312L13.706 24.6299L13.3745 24.1286L13.5089 23.8859L12.9873 23.1339L12.8981 22.5838H12.6866L12.7573 23.1185L13.1182 23.6685L13.0788 23.8859L12.7729 23.8394L12.3967 23.2053V22.5462L12.2327 22.3598V21.829C12.2327 21.829 12.2963 21.3596 12.4163 21.133L12.8034 20.6628L12.7883 20.4935C12.6558 20.7012 12.5317 20.9144 12.4159 21.133L12.3848 21.1693C12.2719 21.3848 12.1649 21.604 12.0686 21.829C11.6037 22.9503 11.3379 24.1842 11.3379 25.4788C11.3379 30.6211 15.5214 34.8051 20.6635 34.8048C25.7332 34.6633 27.9655 31.2553 27.9655 31.2553L27.656 31.2798V30.6662L27.3278 30.1917V29.453L27.0778 29.185L27.0562 28.8777L27.3736 28.2256L26.7709 27.0815L26.8428 26.3051L26.2998 26.2448L26.1 26.0293H25.5049L25.304 26.1934H24.6067H24.5834H24.1954L23.2258 25.2894V24.4087L23.3802 24.356L23.4377 24.0605H23.2183L23.1285 23.7503L24.2103 23.0238V22.5091L24.7395 22.2357L24.9531 22.2556H25.2901L25.6168 22.0665L26.6714 21.9781V22.5587L27.5037 22.7859L27.6679 22.9119H27.8201V22.5963L28.3005 22.546L28.7571 22.9119H29.5626L29.6161 22.8626C29.538 22.5977 29.449 22.3379 29.3497 22.0827L28.8323 22.0915Z" fill="#00A872"/>
</g>
</svg>
