<svg width="46" height="46" viewBox="0 0 46 46" fill="none" xmlns="http://www.w3.org/2000/svg">
<path d="M23 46C35.7025 46 46 35.7025 46 23C46 10.2975 35.7025 0 23 0C10.2975 0 0 10.2975 0 23C0 35.7025 10.2975 46 23 46Z" fill="white"/>
<mask id="mask0_74_37" style="mask-type:alpha" maskUnits="userSpaceOnUse" x="7" y="7" width="27" height="27">
<path d="M7.35938 7.39014H33.9881V33.9941H7.35938V7.39014Z" fill="white"/>
</mask>
<g mask="url(#mask0_74_37)">
<path fill-rule="evenodd" clip-rule="evenodd" d="M29.5361 26.1673C29.5361 26.0996 29.5463 26.0333 29.5666 25.9705L29.5848 25.9246C29.6041 25.8769 29.6252 25.8372 29.6502 25.8016L29.6945 25.7497C29.696 25.7454 29.7267 25.7089 29.7688 25.6741L29.8233 25.6362C29.8496 25.6182 29.8836 25.5981 29.9197 25.582L29.9794 25.5611C30.0146 25.55 30.0474 25.5409 30.0813 25.5356L30.157 25.5301C30.1925 25.5294 30.2278 25.5297 30.2628 25.5342C30.2926 25.5388 30.3173 25.5448 30.3416 25.552C30.3743 25.5606 30.4073 25.5711 30.4403 25.5862C30.4644 25.5974 30.4878 25.6113 30.5105 25.6256C30.5476 25.6494 30.5877 25.6746 30.6281 25.7153L31.9205 27.0109C32.1804 27.2712 32.5407 27.3975 32.9093 27.3573L33.0026 27.3442C33.0272 27.3398 33.0526 27.3337 33.0779 27.3273L33.1227 27.3158C33.1471 27.3084 33.1709 27.2997 33.1949 27.2907L33.2394 27.275C33.2628 27.2651 33.2855 27.2538 33.3087 27.2423L33.3555 27.2196C33.3747 27.2097 33.393 27.1978 33.4113 27.1862L33.4433 27.1664C33.4798 27.1423 33.498 27.1279 33.516 27.1135L33.5442 27.0921C33.5783 27.0648 33.5904 27.0523 33.6026 27.0401L33.6445 26.9997C33.6703 26.9737 33.6823 26.9588 33.6946 26.9439L33.734 26.8971C33.7827 26.8346 33.8148 26.7818 33.8439 26.7272C33.8808 26.658 33.9026 26.6048 33.9212 26.5506C33.9474 26.4696 33.9609 26.4151 33.9705 26.3603C33.9827 26.2756 33.9879 26.2199 33.9882 26.1638L33.9786 26.0093C33.9757 25.9847 33.9729 25.9638 33.9692 25.9426L33.96 25.8986C33.9548 25.874 33.9494 25.8532 33.9436 25.832L33.9308 25.7887C33.9238 25.7653 33.9163 25.7454 33.909 25.7255L33.892 25.6826C33.8825 25.6602 33.8725 25.6394 33.8622 25.6186L33.8418 25.5779C33.8318 25.5593 33.8206 25.5413 33.8093 25.5234L33.7821 25.4791C33.7677 25.4577 33.7519 25.4375 33.7363 25.417L33.7129 25.3862C33.6888 25.3566 33.6625 25.3272 33.6344 25.299L31.384 23.0486C30.9948 22.6598 30.5358 22.3668 30.0188 22.1783L24.0857 20.0133C23.995 19.9803 23.911 19.9254 23.8426 19.8546L22.2487 18.177L22.3105 17.9905C22.3689 17.8138 22.3757 17.6254 22.33 17.4459C22.2917 17.293 22.2186 17.1554 22.1135 17.0368L13.6218 7.49102C13.5673 7.42956 13.4923 7.39458 13.4106 7.39232C13.3281 7.38016 13.2516 7.42022 13.1939 7.4782L7.44572 13.2265C7.38896 13.2836 7.35813 13.3592 7.35941 13.4396C7.36096 13.5201 7.39405 13.5948 7.45269 13.65L11.6391 17.5661C11.8634 17.1731 12.2816 16.9052 12.7664 16.9052H14.8138C15.5334 16.9052 16.1166 17.4884 16.1166 18.208C16.1166 18.9276 15.5334 19.5109 14.8138 19.5109H17.2008C17.9204 19.5109 18.5037 20.0942 18.5037 20.8137C18.5037 21.5331 17.9207 22.1161 17.2014 22.1165H18.7208C19.4404 22.1165 20.0238 22.6998 20.0238 23.4194C20.0238 24.1389 19.4404 24.7222 18.7208 24.7222H19.7534C20.473 24.7222 21.0563 25.3054 21.0563 26.025C21.0563 26.7114 20.5238 27.2675 19.8506 27.318V30.2231C19.8506 30.7536 20.2672 31.2002 20.7798 31.2184C20.8791 31.2219 20.9842 31.2091 21.0827 31.1806C21.1297 31.1671 21.1743 31.1496 21.2176 31.1293C21.2762 31.1018 21.3166 31.078 21.3551 31.052C21.4079 31.0146 21.4445 30.9857 21.4782 30.954L21.4951 30.9377C21.5228 30.9097 21.5487 30.8796 21.573 30.8482C21.6156 30.7915 21.6414 30.7531 21.6634 30.7126C21.6888 30.662 21.706 30.623 21.7208 30.5821C21.7436 30.5172 21.7544 30.4729 21.7628 30.4274C21.774 30.3524 21.7795 30.3046 21.7795 30.2556V30.2545H22.4359V31.6438C22.4359 32.1755 22.8686 32.6082 23.4004 32.6082C23.4895 32.6082 23.5795 32.5951 23.668 32.5698L23.6969 32.5611C23.7311 32.5499 23.758 32.54 23.7843 32.5287C23.8221 32.5114 23.8522 32.4954 23.8817 32.4784L23.9084 32.4624C23.9301 32.4489 23.9542 32.4322 23.9779 32.415C24.1269 32.297 24.2273 32.1659 24.2895 32.0187C24.3383 31.9037 24.3634 31.7801 24.3645 31.6523L24.3676 30.8741L25.0266 30.8781L25.0212 31.6486H25.0215V32.3066C25.0215 32.837 25.4382 33.2832 25.9504 33.3015C26.1017 33.306 26.2489 33.2771 26.3877 33.2127C26.4469 33.1851 26.4873 33.1617 26.5257 33.1358C26.5787 33.098 26.6142 33.0701 26.6469 33.0391C26.6857 33.0025 26.7161 32.9672 26.7447 32.9306C26.7864 32.8755 26.8119 32.8367 26.8344 32.7957C26.86 32.7457 26.8781 32.7044 26.8934 32.6615C26.9149 32.6005 26.9258 32.5544 26.9344 32.5075C26.945 32.4371 26.9504 32.388 26.9504 32.3376H26.9549V31.1813H27.6114L27.6068 32.5787V33.0297C27.6068 33.5615 28.0396 33.9942 28.5718 33.9942C28.6605 33.9942 28.7505 33.9811 28.8389 33.9553L28.8842 33.9426C28.9021 33.9361 28.9275 33.9266 28.9525 33.9156C28.9958 33.8958 29.023 33.8816 29.0495 33.8662L29.0797 33.848C29.1019 33.8342 29.1243 33.8188 29.1464 33.8025C29.4028 33.5999 29.5361 33.3249 29.5361 33.0297V26.1673Z" fill="#055F6B"/>
</g>
<mask id="mask1_74_37" style="mask-type:alpha" maskUnits="userSpaceOnUse" x="29" y="26" width="9" height="12">
<path d="M29.5039 26.7656H37.676V37.7198H29.5039V26.7656Z" fill="white"/>
</mask>
<g mask="url(#mask1_74_37)">
<path fill-rule="evenodd" clip-rule="evenodd" d="M37.4857 33.0012L35.9135 31.5406L35.914 31.5402L32.5962 28.4584C32.2385 28.3867 31.9062 28.2262 31.6407 27.979L30.3378 26.7656L30.3355 33.3114C30.3355 33.7879 30.1044 34.2319 29.7013 34.5295L29.6572 34.56C29.623 34.5838 29.5834 34.6091 29.5426 34.6324L29.5039 34.6543L30.6106 35.6824L30.6104 35.6826L32.6131 37.543C32.8671 37.7791 33.2793 37.7788 33.5328 37.5422L37.4867 33.8538C37.7394 33.6179 37.739 33.2365 37.4857 33.0012Z" fill="#FEFEFE"/>
</g>
<path fill-rule="evenodd" clip-rule="evenodd" d="M16.2243 24.6629C15.4787 24.6629 14.8745 24.1688 14.8745 23.5592C14.8745 23.3541 14.9474 23.1644 15.0665 23C14.8527 23.1956 14.7188 23.451 14.7188 23.7341C14.7188 24.3449 15.3243 24.84 16.0713 24.84H17.6698C17.8804 24.7291 18.1296 24.6629 18.3988 24.6629H16.2243Z" fill="#055F6B"/>
<path fill-rule="evenodd" clip-rule="evenodd" d="M18.171 27.4166C17.3702 27.4166 16.7212 26.9167 16.7212 26.3002C16.7212 26.1031 16.7931 25.9207 16.9095 25.76C16.6937 25.9553 16.5586 26.205 16.5586 26.4814C16.5586 27.0992 17.209 27.6 18.0114 27.6H19.3186V27.4166H18.171Z" fill="#055F6B"/>
<path fill-rule="evenodd" clip-rule="evenodd" d="M14.2158 21.9091C13.5552 21.9091 13.0197 21.4197 13.0197 20.8159C13.0197 20.6038 13.0886 20.4077 13.203 20.24C13.0034 20.4357 12.8789 20.6962 12.8789 20.9847C12.8789 21.5897 13.4155 22.08 14.0774 22.08H15.0025C15.1872 21.9733 15.4043 21.9091 15.6389 21.9091H14.2158Z" fill="#055F6B"/>
<path fill-rule="evenodd" clip-rule="evenodd" d="M12.714 20.0017C11.9287 20.0017 11.2919 19.3665 11.2309 18.5618L11.0655 18.3999C11.0502 18.4892 11.0391 18.5799 11.0391 18.6737C11.0391 19.5387 11.7097 20.2399 12.537 20.2399H13.9336C14.1624 20.0914 14.43 20.0017 14.7191 20.0017H12.714Z" fill="#055F6B"/>
<path fill-rule="evenodd" clip-rule="evenodd" d="M23.4523 17.424C23.5101 17.6572 23.516 17.8989 23.4708 18.1337L24.766 19.5268L26.6802 20.2399L25.5128 16.9703C25.3128 16.4104 24.9953 15.9017 24.5825 15.4806L22.481 13.3328C22.1856 13.0311 21.7986 12.8799 21.4114 12.8799C21.0242 12.8799 20.6372 13.031 20.3418 13.3328C20.3031 13.3724 20.2736 13.417 20.2402 13.4596L23.0993 16.7435C23.2684 16.9379 23.3906 17.1733 23.4523 17.424Z" fill="#055F6B"/>
</svg>
