<svg width="46" height="46" viewBox="0 0 46 46" fill="none" xmlns="http://www.w3.org/2000/svg">
<path d="M23 46C35.7025 46 46 35.7025 46 23C46 10.2975 35.7025 0 23 0C10.2975 0 0 10.2975 0 23C0 35.7025 10.2975 46 23 46Z" fill="white"/>
<mask id="mask0_74_73" style="mask-type:alpha" maskUnits="userSpaceOnUse" x="8" y="6" width="29" height="34">
<path d="M8.44922 6.57153H36.6125V39.4287H8.44922V6.57153Z" fill="white"/>
</mask>
<g mask="url(#mask0_74_73)">
<path fill-rule="evenodd" clip-rule="evenodd" d="M29.939 22.3046C29.939 23.8506 28.7098 25.1043 27.1934 25.1043H25.5412L18.352 17.4061L18.3595 16.2699C18.3595 14.7238 19.5887 13.4702 21.1051 13.4702H27.2335C28.7499 13.4702 29.9785 14.7238 29.9785 16.2699L29.939 22.3046ZM35.2362 6.57167C35.1755 6.56863 31.0192 6.61714 31.0192 6.61714C30.2807 6.62608 29.6862 7.36462 29.6962 8.12103C29.7056 8.86978 30.3045 9.58917 31.0355 9.58917H31.053L31.8272 9.45896L30.5192 10.7394C30.3102 10.6871 30.0917 10.6558 29.867 10.6558H18.4321C16.9157 10.6558 15.6871 11.9095 15.6871 13.4561V14.9626C15.6852 14.9613 15.6834 14.96 15.6809 14.9594V19.6364C15.6834 19.6357 15.6852 19.6357 15.6871 19.6351V25.1183C15.6871 26.665 16.9157 27.918 18.4321 27.918H23.1823C23.1229 27.6467 22.967 27.3607 22.7042 27.0792L20.8504 25.0934C19.4347 24.9811 18.3207 23.7765 18.3207 22.3046L18.3251 21.4882L23.136 26.6401C23.1892 26.6962 23.2374 26.7537 23.2818 26.8111C23.2987 26.8322 23.3125 26.8533 23.3281 26.875C23.3538 26.9107 23.3801 26.9458 23.4026 26.9816C23.4195 27.009 23.4339 27.0365 23.4496 27.0639C23.4658 27.0926 23.4834 27.1214 23.4971 27.1501C23.5122 27.1814 23.5253 27.2126 23.5378 27.2439C23.5478 27.2675 23.5591 27.2918 23.5672 27.316C23.5797 27.3499 23.5891 27.3843 23.5979 27.4182C23.6035 27.438 23.6098 27.4584 23.6142 27.4782C23.6217 27.5146 23.6273 27.5503 23.6317 27.5861C23.6342 27.6027 23.6361 27.6192 23.6373 27.6358C23.6405 27.6741 23.6411 27.7112 23.6404 27.7482C23.6404 27.7616 23.6398 27.775 23.6392 27.789C23.6367 27.8273 23.6317 27.8656 23.6248 27.9033C23.5434 28.3559 23.1517 28.7248 22.4795 28.8857L13.9322 30.9302C12.6893 31.2277 11.9771 30.4572 12.3419 29.2093L14.8266 20.7075C14.8823 20.516 14.9555 20.3507 15.0387 20.207V14.8202C14.1263 14.7794 13.3252 15.4515 12.9396 16.7716L8.61563 31.5679C7.98039 33.7395 9.21958 35.0806 11.3831 34.5629L17.8156 33.0239L18.2037 34.6351L16.7248 34.9868C16.0032 35.1578 15.5569 35.9002 15.7241 36.6343C15.893 37.3709 16.6153 37.8343 17.3362 37.6626L18.8158 37.3109L19.058 38.3744C19.2263 39.1084 19.9529 39.5642 20.6733 39.3925C21.3949 39.2208 21.8486 38.4848 21.6809 37.7507L21.4375 36.6873L23.0246 36.3094C23.7456 36.1383 24.1912 35.3972 24.0235 34.6606C23.8551 33.9259 23.1329 33.4618 22.4132 33.6329L20.8254 34.0101L20.4586 32.392L26.2584 31.0043C28.0615 30.5728 28.7117 29.2853 27.9926 27.918H29.867C31.3829 27.918 32.612 26.665 32.612 25.1183V13.4561C32.612 13.167 32.5682 12.888 32.4887 12.625L33.9595 11.2041V12.1597C33.9595 12.9148 34.5453 13.5276 35.285 13.5276C36.0261 13.5276 36.6125 12.9148 36.6125 12.1597V7.92826C36.6131 7.5625 36.5524 6.6548 35.2362 6.57167Z" fill="#EB5B47"/>
</g>
</svg>
