<svg width="46" height="46" viewBox="0 0 46 46" fill="none" xmlns="http://www.w3.org/2000/svg">
<path d="M23 46C35.7025 46 46 35.7025 46 23C46 10.2975 35.7025 0 23 0C10.2975 0 0 10.2975 0 23C0 35.7025 10.2975 46 23 46Z" fill="white"/>
<path fill-rule="evenodd" clip-rule="evenodd" d="M21.5658 10.8482C21.5658 10.3294 21.9872 9.90709 22.507 9.90709C23.0286 9.90709 23.45 10.3294 23.45 10.8482V15.1713C24.6616 13.8649 25.3507 12.1445 25.3507 10.3119C25.3507 8.04501 24.2982 5.95201 22.507 4.59961C20.7176 5.95201 19.666 8.04501 19.666 10.3119C19.666 12.1445 20.3542 13.864 21.5658 15.1713V10.8482Z" fill="#74B959"/>
<path fill-rule="evenodd" clip-rule="evenodd" d="M25.0953 16.1544C24.0806 17.3743 23.512 18.8767 23.4531 20.437L26.7403 17.1517C27.1083 16.7846 27.7044 16.7846 28.0724 17.1517C28.4414 17.5187 28.4414 18.1158 28.0724 18.4838L24.7853 21.7701C26.5664 21.702 28.2702 20.9724 29.5665 19.6761C31.171 18.0735 31.907 15.8499 31.5979 13.629C29.3752 13.3199 27.1497 14.0559 25.547 15.6585C25.4164 15.7891 25.2922 15.9244 25.1726 16.0633C25.1478 16.0946 25.1211 16.124 25.0953 16.1544Z" fill="#74B959"/>
<path fill-rule="evenodd" clip-rule="evenodd" d="M20.2294 21.7696L16.9422 18.4843C16.5742 18.1154 16.5742 17.5192 16.9422 17.1512C17.3102 16.7841 17.9073 16.7841 18.2744 17.1512L21.5624 20.4375C21.5036 18.8762 20.9341 17.3748 19.9193 16.1539C19.8945 16.1236 19.8669 16.0941 19.842 16.0629C19.7234 15.9239 19.5982 15.7896 19.4676 15.6581C17.865 14.0554 15.6395 13.3185 13.4168 13.6285C13.1076 15.8494 13.8446 18.0731 15.4472 19.6766C16.7444 20.9729 18.4482 21.7025 20.2294 21.7696Z" fill="#74B959"/>
<mask id="mask0_74_81" style="mask-type:alpha" maskUnits="userSpaceOnUse" x="5" y="24" width="35" height="3">
<path d="M5.51953 24.0564H39.445V26.2184H5.51953V24.0564Z" fill="white"/>
</mask>
<g mask="url(#mask0_74_81)">
<path fill-rule="evenodd" clip-rule="evenodd" d="M37.3607 25.4819C36.6956 25.2206 36.0461 24.9032 35.3377 24.6612C34.6311 24.4137 33.8371 24.3254 33.0827 24.3668C32.3237 24.4119 31.5942 24.5747 30.8849 24.7293C29.4717 25.0439 28.1037 25.3871 26.8295 25.078C26.1818 24.9326 25.5222 24.6787 24.8119 24.4478C24.4577 24.3346 24.087 24.2279 23.6978 24.1552C23.3105 24.0825 22.9002 24.0448 22.5064 24.0595C21.7134 24.0816 20.9627 24.2472 20.2515 24.4312C19.5394 24.6171 18.8531 24.8176 18.1797 24.9602C17.5081 25.1001 16.842 25.1718 16.2007 25.0844C15.5604 24.997 14.8888 24.7449 14.1491 24.5711C12.6523 24.2113 11.1113 24.3346 9.68437 24.6962C8.97045 24.8783 8.27401 25.1378 7.60701 25.3935C6.94185 25.6337 6.23989 25.8462 5.51953 25.7036C6.21045 25.9649 6.99061 25.8545 7.69533 25.6898C8.40741 25.5159 9.09005 25.3301 9.79477 25.2316C11.1904 25.0062 12.6173 25.0246 13.9247 25.4119C14.5797 25.607 15.2568 25.9143 16.048 26.0513C16.8401 26.1893 17.6359 26.1259 18.3793 25.9989C19.8633 25.7293 21.2166 25.1921 22.534 25.1783C23.1845 25.1516 23.811 25.2795 24.4835 25.492C25.1514 25.6935 25.8442 25.9676 26.6142 26.1157C27.3925 26.2703 28.2049 26.2353 28.9492 26.1102C29.7036 25.9897 30.4101 25.7753 31.1001 25.5766C31.7911 25.377 32.4719 25.1957 33.1527 25.0973C33.8353 25.0044 34.5078 25.0219 35.1886 25.1911C35.8722 25.3411 36.5539 25.5969 37.2651 25.7772C37.9725 25.9621 38.7343 26.0587 39.4455 25.8922C38.7168 25.9382 38.0222 25.7413 37.3607 25.4819Z" fill="#74B959"/>
</g>
<path fill-rule="evenodd" clip-rule="evenodd" d="M20.7773 28.1091C20.1278 28.1091 19.6016 28.6363 19.6016 29.2858C19.6016 29.9353 20.1278 30.4625 20.7773 30.4625C21.4268 30.4625 21.954 29.9353 21.954 29.2858C21.954 28.6363 21.4268 28.1091 20.7773 28.1091Z" fill="#74B959"/>
<path fill-rule="evenodd" clip-rule="evenodd" d="M24.1953 28.1091C23.5458 28.1091 23.0195 28.6363 23.0195 29.2858C23.0195 29.9353 23.5458 30.4625 24.1953 30.4625C24.8448 30.4625 25.372 29.9353 25.372 29.2858C25.372 28.6363 24.8448 28.1091 24.1953 28.1091Z" fill="#74B959"/>
<path fill-rule="evenodd" clip-rule="evenodd" d="M20.7773 31.5293C20.1278 31.5293 19.6016 32.0555 19.6016 32.7051C19.6016 33.3546 20.1278 33.8827 20.7773 33.8827C21.4268 33.8827 21.954 33.3546 21.954 32.7051C21.954 32.0555 21.4268 31.5293 20.7773 31.5293Z" fill="#74B959"/>
<path fill-rule="evenodd" clip-rule="evenodd" d="M24.1953 31.5293C23.5458 31.5293 23.0195 32.0555 23.0195 32.7051C23.0195 33.3546 23.5458 33.8827 24.1953 33.8827C24.8448 33.8827 25.372 33.3546 25.372 32.7051C25.372 32.0555 24.8448 31.5293 24.1953 31.5293Z" fill="#74B959"/>
<path fill-rule="evenodd" clip-rule="evenodd" d="M20.7773 34.9487C20.1278 34.9487 19.6016 35.475 19.6016 36.1245C19.6016 36.7749 20.1278 37.3021 20.7773 37.3021C21.4268 37.3021 21.954 36.7749 21.954 36.1245C21.954 35.475 21.4268 34.9487 20.7773 34.9487Z" fill="#74B959"/>
<path fill-rule="evenodd" clip-rule="evenodd" d="M17.3271 31.5293C16.6766 31.5293 16.1504 32.0555 16.1504 32.7051C16.1504 33.3546 16.6766 33.8827 17.3271 33.8827C17.9766 33.8827 18.5028 33.3546 18.5028 32.7051C18.5028 32.0555 17.9766 31.5293 17.3271 31.5293Z" fill="#74B959"/>
<path fill-rule="evenodd" clip-rule="evenodd" d="M17.3271 34.9487C16.6766 34.9487 16.1504 35.475 16.1504 36.1245C16.1504 36.7749 16.6766 37.3021 17.3271 37.3021C17.9766 37.3021 18.5028 36.7749 18.5028 36.1245C18.5028 35.475 17.9766 34.9487 17.3271 34.9487Z" fill="#74B959"/>
<path fill-rule="evenodd" clip-rule="evenodd" d="M24.1953 34.9487C23.5458 34.9487 23.0195 35.475 23.0195 36.1245C23.0195 36.7749 23.5458 37.3021 24.1953 37.3021C24.8448 37.3021 25.372 36.7749 25.372 36.1245C25.372 35.475 24.8448 34.9487 24.1953 34.9487Z" fill="#74B959"/>
<path fill-rule="evenodd" clip-rule="evenodd" d="M27.6454 31.5293C26.995 31.5293 26.4688 32.0555 26.4688 32.7051C26.4688 33.3546 26.995 33.8827 27.6454 33.8827C28.2949 33.8827 28.8212 33.3546 28.8212 32.7051C28.8212 32.0555 28.2949 31.5293 27.6454 31.5293Z" fill="#74B959"/>
<path fill-rule="evenodd" clip-rule="evenodd" d="M27.6454 34.9487C26.995 34.9487 26.4688 35.475 26.4688 36.1245C26.4688 36.7749 26.995 37.3021 27.6454 37.3021C28.2949 37.3021 28.8212 36.7749 28.8212 36.1245C28.8212 35.475 28.2949 34.9487 27.6454 34.9487Z" fill="#74B959"/>
<mask id="mask1_74_81" style="mask-type:alpha" maskUnits="userSpaceOnUse" x="19" y="38" width="3" height="3">
<path d="M19.6016 38.3684H21.954V40.7215H19.6016V38.3684Z" fill="white"/>
</mask>
<g mask="url(#mask1_74_81)">
<path fill-rule="evenodd" clip-rule="evenodd" d="M20.7773 38.3684C20.1278 38.3684 19.6016 38.8946 19.6016 39.5451C19.6016 40.1946 20.1278 40.7218 20.7773 40.7218C21.4268 40.7218 21.954 40.1946 21.954 39.5451C21.954 38.8946 21.4268 38.3684 20.7773 38.3684Z" fill="#74B959"/>
</g>
<mask id="mask2_74_81" style="mask-type:alpha" maskUnits="userSpaceOnUse" x="23" y="38" width="3" height="3">
<path d="M23.0195 38.3684H25.372V40.7215H23.0195V38.3684Z" fill="white"/>
</mask>
<g mask="url(#mask2_74_81)">
<path fill-rule="evenodd" clip-rule="evenodd" d="M24.1953 38.3684C23.5458 38.3684 23.0195 38.8946 23.0195 39.5451C23.0195 40.1946 23.5458 40.7218 24.1953 40.7218C24.8448 40.7218 25.372 40.1946 25.372 39.5451C25.372 38.8946 24.8448 38.3684 24.1953 38.3684Z" fill="#74B959"/>
</g>
</svg>
