<svg width="46" height="46" viewBox="0 0 46 46" fill="none" xmlns="http://www.w3.org/2000/svg">
<path d="M23 46C35.7025 46 46 35.7025 46 23C46 10.2975 35.7025 0 23 0C10.2975 0 0 10.2975 0 23C0 35.7025 10.2975 46 23 46Z" fill="white"/>
<path fill-rule="evenodd" clip-rule="evenodd" d="M37.7091 26.0945C37.4652 25.5678 36.8541 25.7474 36.514 26.0579C35.8695 26.6448 35.4865 28.0844 34.9203 29.1896C34.2256 30.5437 32.305 31.4467 32.3047 31.4469C32.4686 31.1182 33.3107 30.0322 33.449 29.7683C34.1852 28.3688 33.3393 27.3628 32.8232 27.7916C32.1414 28.3582 31.8633 28.8665 30.6267 30.1752C29.689 31.1667 28.4156 32.1033 27.9926 32.8221C27.3957 33.837 27.6562 37.2262 27.6562 37.2262L31.2473 37.72C31.2473 37.72 31.5863 35.3208 32.2133 34.8168C33.642 33.6685 33.6855 33.6015 34.9585 32.4583C35.4997 31.9718 35.6006 31.8528 35.8416 31.4759C37.1263 29.4691 37.8143 26.3218 37.7091 26.0945Z" fill="#F07E28"/>
<path fill-rule="evenodd" clip-rule="evenodd" d="M14.4524 30.1751C13.2156 28.8665 12.9375 28.3582 12.2558 27.7918C11.7396 27.3628 10.8938 28.3689 11.6299 29.7684C11.7683 30.0321 12.6103 31.1181 12.7743 31.4471C12.774 31.4469 10.8534 30.5439 10.1587 29.1897C9.59244 28.0844 9.20954 26.6448 8.56495 26.0578C8.22486 25.7474 7.61381 25.5679 7.3699 26.0944C7.2647 26.3217 7.95273 29.4691 9.23739 31.476C9.47833 31.8528 9.57919 31.9718 10.1204 32.4583C11.3935 33.6016 11.437 33.6685 12.8656 34.8169C13.4927 35.3208 13.8317 37.72 13.8317 37.72L17.4228 37.2262C17.4228 37.2262 17.6833 33.8369 17.0864 32.8221C16.6633 32.1032 15.3899 31.1667 14.4524 30.1751Z" fill="#F07E28"/>
<path fill-rule="evenodd" clip-rule="evenodd" d="M33.119 18.1154C33.119 16.0797 31.5099 14.4295 29.5253 14.4296C28.5541 14.4297 27.6243 14.8329 26.9476 15.5476C26.7776 15.7272 26.4979 15.7315 26.3228 15.5571C26.311 15.5453 26.2999 15.5329 26.2895 15.52C25.5012 14.5389 24.195 14.1752 23.0312 14.6125C22.8804 14.6693 22.7113 14.6376 22.5897 14.5295C21.372 13.4485 19.5304 13.5847 18.4765 14.8338C18.2328 15.1224 18.0453 15.4562 17.9242 15.8171C17.8542 16.026 17.6476 16.1526 17.4352 16.117C17.3095 16.0962 17.1823 16.0855 17.055 16.0856C16.5183 16.0834 15.9974 16.2713 15.5802 16.6175C15.4554 16.7203 15.2863 16.746 15.1378 16.6845C14.8581 16.5688 14.5594 16.5096 14.2579 16.5104C13.1561 16.5144 12.2028 17.298 11.959 18.4H33.1081C33.1152 18.3056 33.119 18.2105 33.119 18.1154Z" fill="#F07E28"/>
<path fill-rule="evenodd" clip-rule="evenodd" d="M15.5576 28.5198H29.521C32.797 26.4407 34.8172 23.023 34.9591 19.3198H10.1191C10.2612 23.0231 12.2814 26.4408 15.5576 28.5198Z" fill="#F07E28"/>
<path fill-rule="evenodd" clip-rule="evenodd" d="M17.9901 11.4483C18.6906 12.1487 19.7287 12.6148 20.9923 12.796C21.4577 12.8626 21.8719 12.8799 22.1755 12.8799C22.3292 12.8799 22.4545 12.8754 22.5438 12.8708L19.5557 9.88281C19.4326 9.75979 19.4326 9.56015 19.5557 9.43704C19.6788 9.31393 19.8784 9.31393 20.0015 9.43704L22.9895 12.425C23.0033 12.1599 23.0152 11.5747 22.9147 10.8737C22.7334 9.6101 22.2675 8.57189 21.567 7.8715C20.8666 7.17103 19.8284 6.705 18.5649 6.52388C17.6246 6.38908 16.8925 6.45635 16.8619 6.45938C16.7114 6.47375 16.5924 6.59279 16.578 6.74317C16.575 6.77391 16.5077 7.50599 16.6426 8.44619C16.8237 9.70975 17.2896 10.748 17.9901 11.4483Z" fill="#F07E28"/>
<path fill-rule="evenodd" clip-rule="evenodd" d="M24.2767 11.2064L25.1038 10.3647C25.2274 10.2389 25.4278 10.2389 25.5515 10.3647C25.6751 10.4905 25.6751 10.6945 25.5515 10.8203L24.3168 12.0768C24.3165 12.4051 24.2981 12.6192 24.2941 12.6621C24.287 12.7376 24.2713 12.8105 24.248 12.88C24.9512 12.8139 25.9219 12.5883 26.6052 11.8927C27.7705 10.707 27.594 8.6705 27.5858 8.58434C27.5714 8.43067 27.4519 8.30903 27.3009 8.29435C27.2162 8.28612 25.2152 8.10645 24.0501 9.29232C24.0047 9.3385 23.9614 9.38601 23.9199 9.43457C24.0564 9.84974 24.1591 10.296 24.2258 10.7691C24.2471 10.9205 24.2638 11.0668 24.2767 11.2064Z" fill="#F07E28"/>
</svg>
