<svg width="104" height="104" viewBox="0 0 104 104" fill="none" xmlns="http://www.w3.org/2000/svg">
<path d="M52 104C80.7188 104 104 80.7188 104 52C104 23.2812 80.7188 0 52 0C23.2812 0 0 23.2812 0 52C0 80.7188 23.2812 104 52 104Z" fill="#F07E28"/>
<path fill-rule="evenodd" clip-rule="evenodd" d="M85.2566 58.9963C84.7052 57.8055 83.3237 58.2114 82.5547 58.9135C81.0974 60.2404 80.2317 63.495 78.9515 65.9939C77.3809 69.0554 73.0387 71.0969 73.0381 71.0973C73.4086 70.3541 75.3124 67.8988 75.6252 67.3022C77.2896 64.138 75.377 61.8636 74.2103 62.8332C72.6688 64.1142 72.0401 65.2633 69.2443 68.2221C67.1242 70.4638 64.2453 72.5812 63.2889 74.2064C61.9394 76.5009 62.5283 84.1635 62.5283 84.1635L70.6474 85.28C70.6474 85.28 71.4138 79.8556 72.8314 78.7163C76.0615 76.12 76.1598 75.9685 79.0379 73.3841C80.2615 72.2839 80.4895 72.0151 81.0345 71.1628C83.9389 66.6257 85.4944 59.5101 85.2566 58.9963Z" fill="#FEFEFE"/>
<path fill-rule="evenodd" clip-rule="evenodd" d="M32.6769 68.222C29.8807 65.2634 29.252 64.1143 27.7107 62.8335C26.5438 61.8637 24.6314 64.1383 26.2958 67.3025C26.6086 67.8987 28.5123 70.354 28.883 71.0977C28.8823 71.0973 24.5401 69.0557 22.9695 65.994C21.6893 63.4951 20.8236 60.2403 19.3663 58.9133C18.5974 58.2115 17.2159 57.8056 16.6644 58.9961C16.4266 59.5099 17.9821 66.6258 20.8866 71.1632C21.4313 72.015 21.6593 72.2841 22.8829 73.384C25.7613 75.9689 25.8595 76.1202 29.0894 78.7165C30.5074 79.8558 31.2736 85.28 31.2736 85.28L39.3927 84.1634C39.3927 84.1634 39.9817 76.5009 38.6322 74.2065C37.6756 72.5812 34.7966 70.4639 32.6769 68.222Z" fill="#FEFEFE"/>
<path fill-rule="evenodd" clip-rule="evenodd" d="M74.881 40.9565C74.881 36.354 71.2431 32.6231 66.7561 32.6233C64.5605 32.6235 62.4581 33.5352 60.9283 35.151C60.544 35.557 59.9115 35.5666 59.5158 35.1724C59.4891 35.1458 59.464 35.1176 59.4404 35.0884C57.6581 32.8705 54.7051 32.048 52.0739 33.0368C51.7328 33.1651 51.3505 33.0935 51.0758 32.8493C48.3226 30.4051 44.1589 30.713 41.7763 33.5371C41.2253 34.1896 40.8015 34.9444 40.5275 35.7603C40.3693 36.2326 39.9023 36.5188 39.4219 36.4382C39.1377 36.3912 38.8503 36.367 38.5624 36.3672C37.3491 36.3624 36.1714 36.787 35.2281 37.5698C34.946 37.8023 34.5635 37.8604 34.228 37.7214C33.5955 37.4597 32.9203 37.3259 32.2385 37.3276C29.7475 37.3366 27.5922 39.1083 27.041 41.6H74.8564C74.8724 41.3864 74.881 41.1715 74.881 40.9565Z" fill="#FEFEFE"/>
<path fill-rule="evenodd" clip-rule="evenodd" d="M35.1765 64.4802H66.7458C74.1524 59.7795 78.7199 52.0525 79.0409 43.6802H22.8809C23.202 52.0527 27.7695 59.7797 35.1765 64.4802Z" fill="#FEFEFE"/>
<path fill-rule="evenodd" clip-rule="evenodd" d="M40.6779 25.8834C42.2616 27.4669 44.6087 28.5205 47.4655 28.9302C48.5177 29.0809 49.4542 29.1201 50.1406 29.1201C50.488 29.1201 50.7713 29.1099 50.9731 29.0993L44.2174 22.3439C43.9391 22.0658 43.9391 21.6144 44.2174 21.3361C44.4958 21.0578 44.9471 21.0578 45.2253 21.3361L51.9809 28.0915C52.012 27.4921 52.039 26.1692 51.8118 24.5841C51.4019 21.7274 50.3485 19.3801 48.7648 17.7966C47.1813 16.2129 44.834 15.1593 41.9774 14.7498C39.8515 14.4451 38.1964 14.5972 38.1271 14.604C37.7869 14.6365 37.5178 14.9056 37.4853 15.2456C37.4786 15.3151 37.3263 16.9702 37.6313 19.0959C38.0408 21.9527 39.0942 24.2999 40.6779 25.8834Z" fill="#FEFEFE"/>
<path fill-rule="evenodd" clip-rule="evenodd" d="M54.8866 25.3362L56.7566 23.4331C57.0361 23.1487 57.4891 23.1487 57.7688 23.4331C58.0482 23.7175 58.0482 24.1788 57.7688 24.4632L54.9774 27.3039C54.9767 28.0463 54.9352 28.5303 54.9261 28.6272C54.91 28.798 54.8745 28.9628 54.8218 29.12C56.4117 28.9704 58.6062 28.4603 60.1511 26.8877C62.7856 24.207 62.3867 19.6028 62.3682 19.408C62.3356 19.0606 62.0653 18.7855 61.724 18.7523C61.5325 18.7337 57.0086 18.3275 54.3743 21.0086C54.2717 21.113 54.1738 21.2204 54.0801 21.3302C54.3886 22.2689 54.6209 23.2777 54.7717 24.3474C54.8198 24.6898 54.8576 25.0204 54.8866 25.3362Z" fill="#FEFEFE"/>
</svg>