<?xml version="1.0" standalone="no"?>
<!DOCTYPE svg PUBLIC "-//W3C//DTD SVG 1.1//EN" "http://www.w3.org/Graphics/SVG/1.1/DTD/svg11.dtd">
<svg xmlns="http://www.w3.org/2000/svg" id="Layer_1" data-name="Layer 1" viewBox="0 0 425.2 425.2" width="425.20001220703125" height="425.20001220703125">
  <defs>
    <style>
      .cls-1 {
        fill: #57fad3;
      }

      .cls-2 {
        fill: #033529;
      }

      .cls-3 {
        fill: #82afa4;
      }
    </style>
  </defs>
  <circle class="cls-2" cx="212.6" cy="212.6" r="212.6"/>
  <path class="cls-3" d="M199.53,253.32c-1.86,0-5.63,1.09-7.43,1.4-6.59,1.03-13.18,2.37-19.76,3.22-3.29.43,11.8-11.34,10.49-14.32-1.08-2.49-18.21,4.78-16.36,2.65,1.56-1.76,5.09-2.61,3.35-5.89-1.68-3.16-2.63-5.81-4.96-5.87-1.56-.06-4.08,1.32-5.7,1.26-3.05,0-6.05,2.85-7.25,0-1.14-2.67-.48-4.98,1.26-7.17,1.56-2,3.77-2.61,5.99-3.22,1.8-.49,3.83-.61,3.23-3.34-.72-3.04-2.87-1.4-4.49-1.28-2.52.18-5.03.97-7.55.85-3.71-.18-6.95-1.76-7.25-6.07-.3-3.77,1.02-6.92,5.21-7.9,2.04-.49,4.01-1.03,6.05-1.46,1.86-.36,2.93-1.28,2.4-3.34-.54-1.94-1.98-1.52-3.29-1.34-3.65.55-7.25,1.34-10.9,1.64-2.93.24-5.33-.91-6.71-3.89-1.2-2.49-1.38-4.92.12-7.23,1.98-3.04,5.27-3.46,8.44-4.01,14.97-2.55,30-5.04,44.98-7.59,2.46-.43,5.27-.85,5.93-3.95.6-2.92-1.26-4.74-3.41-6.32-3.35-2.43-6.95-4.68-9.94-7.53-3.47-3.28-4.79-7.53-1.92-11.91,2.64-3.95,7.25-5.59,10.96-3.16,11.08,7.35,23.42,13.36,30.42,25.63,7.07,12.45,13.65,25.21,21.08,37.42,5.45,6.2,10.42,7.11,19.04,11.48,4.07,2.07,16.53,8.63,20.24,10.99,12.22,7.84,16.17,10.27,28.39,18.16,12.04,7.71,24.01,15.61,36.05,23.26,3.59,2.31,4.67,4.43,1.8,8.38-10.78,14.88-21.32,29.89-31.8,45.01-2.34,3.34-4.37,3.4-7.31,1.03-9.4-7.53-18.86-14.88-28.27-22.35,0,0-57.79-42.03-63.54-46.71-5.75-4.68-8.62-6.8-17.49-6.5l-.12-.06Z"/>
  <path class="cls-1" d="M275.64,228.56c-8.92-9.9-16.83-21.26-29.88-26.3-13.23-5.04-26.77-9.54-39.82-15-6.89-4.43-8.62-9.23-14.25-17.19-2.69-3.71-11.08-15.12-14.01-18.47-9.64-10.93-12.64-14.52-22.28-25.45-9.46-10.75-19.04-21.44-28.51-32.25-2.81-3.22-5.09-3.95-8.44-.49-12.7,13.18-25.63,26.18-38.57,39.18-2.87,2.85-2.58,4.92.24,7.53,8.8,8.14,17.55,16.46,26.35,24.66,0,0,50.36,50.96,55.81,56,5.45,5.04,8.02,7.53,9.16,16.46.24,1.88-.12,5.77-.12,7.65,0,6.74-.12,13.55.12,20.29,0,.12.06.24.06.36.18,4.8,4.07,8.63,8.8,8.63,3.77,0,7.01-2.43,8.26-5.83v6.5c0,4.98,3.95,8.99,8.86,8.99h1.02c4.91,0,8.86-4.01,8.86-8.99v4.07c0,5.47,4.37,9.84,9.7,9.84,4.25,0,7.79-2.79,9.16-6.62v2.43c0,4.98,3.95,8.99,8.86,8.99,2.46,0,4.61-.97,6.23-2.61,0,0,.12-.06.18-.12.3-.3.48-.67.72-.97.06-.12.18-.24.24-.3,1.56-2.31,1.56-5.1,1.56-7.84v-46.22c0-2.55,0-5.41,2.87-6.56,2.75-1.09,4.79.49,6.71,2.43,2.93,2.98,5.69,6.13,8.92,8.75,3.77,2.98,8.14,3.58,11.92,0,3.41-3.28,4.25-8.2,1.32-11.48l-.06-.06Z"/>
  <path class="cls-3" d="M166.83,236.11c-4.83.81-8.1,5.44-7.29,10.34.8,4.9,5.36,8.21,10.19,7.4l8.69-1.46c4.83-.81,8.1-5.44,7.29-10.34-.8-4.9-5.36-8.21-10.19-7.4l-8.68,1.46Z"/>
  <path class="cls-3" d="M147.23,229.92l.17,1.01c.8,4.9,5.37,8.21,10.19,7.4l13.06-2.19c4.83-.81,8.1-5.44,7.3-10.34l-.17-1.02c-.8-4.9-5.36-8.21-10.19-7.4l-13.06,2.19c-4.83.81-8.1,5.44-7.3,10.34Z"/>
  <path class="cls-3" d="M136.77,213.7v.06c.88,5.36,5.87,8.99,11.16,8.1l11.7-1.97c5.28-.89,8.86-5.95,7.98-11.31v-.06c-.89-5.36-5.88-8.99-11.16-8.1l-11.7,1.96c-5.28.89-8.86,5.96-7.98,11.32Z"/>
  <path class="cls-3" d="M137.67,186.58c-4.83.81-8.1,5.43-7.3,10.31.8,4.88,5.36,8.18,10.19,7.37l13.35-2.24c4.83-.81,8.1-5.43,7.3-10.31-.8-4.88-5.35-8.18-10.19-7.37l-13.35,2.24Z"/>
</svg>