<svg width="104" height="104" viewBox="0 0 104 104" fill="none" xmlns="http://www.w3.org/2000/svg">
<path d="M52 104C80.7188 104 104 80.7188 104 52C104 23.2812 80.7188 0 52 0C23.2812 0 0 23.2812 0 52C0 80.7188 23.2812 104 52 104Z" fill="#055F6B"/>
<mask id="mask0_23_129" style="mask-type:alpha" maskUnits="userSpaceOnUse" x="16" y="16" width="61" height="61">
<path d="M16.6406 16.7083H76.8448V76.8564H16.6406V16.7083Z" fill="white"/>
</mask>
<g mask="url(#mask0_23_129)">
<path fill-rule="evenodd" clip-rule="evenodd" d="M66.7793 59.1607C66.7793 59.0077 66.8023 58.8579 66.8481 58.7157L66.8895 58.6121C66.933 58.5043 66.9807 58.4143 67.0372 58.334L67.1374 58.2165C67.1408 58.2069 67.2103 58.1244 67.3053 58.0456L67.4285 57.9599C67.488 57.9194 67.565 57.8738 67.6466 57.8375L67.7815 57.7902C67.8612 57.7651 67.9352 57.7446 68.0119 57.7325L68.1831 57.7201C68.2634 57.7186 68.3431 57.7192 68.4222 57.7295C68.4896 57.7397 68.5454 57.7534 68.6004 57.7696C68.6744 57.7889 68.749 57.8128 68.8236 57.8469C68.8781 57.8723 68.931 57.9036 68.9824 57.936C69.0661 57.9897 69.1569 58.0469 69.2482 58.1389L72.1702 61.068C72.7578 61.6565 73.5722 61.9421 74.4056 61.8513L74.6166 61.8216C74.6723 61.8116 74.7296 61.7978 74.7867 61.7833L74.8882 61.7573C74.9434 61.7407 74.9971 61.721 75.0515 61.7006L75.1521 61.6652C75.2049 61.6428 75.2563 61.6172 75.3087 61.5912L75.4144 61.5399C75.4579 61.5175 75.4993 61.4906 75.5406 61.4644L75.6129 61.4197C75.6956 61.3651 75.7367 61.3325 75.7774 61.2999L75.8412 61.2515C75.9181 61.1899 75.9456 61.1615 75.9731 61.134L76.0679 61.0426C76.1261 60.984 76.1534 60.9501 76.1811 60.9164L76.2702 60.8107C76.3804 60.6694 76.4529 60.55 76.5187 60.4266C76.6021 60.2702 76.6513 60.15 76.6935 60.0274C76.7528 59.8441 76.7833 59.7209 76.805 59.5971C76.8325 59.4057 76.8442 59.2797 76.8449 59.1529L76.8231 58.8035C76.8167 58.7479 76.8103 58.7006 76.802 58.6526L76.7811 58.5533C76.7694 58.4977 76.7573 58.4506 76.744 58.4026L76.715 58.3048C76.6993 58.2519 76.6824 58.2069 76.6658 58.1619L76.6274 58.065C76.6059 58.0142 76.5833 57.9671 76.5601 57.9202L76.5138 57.8282C76.4912 57.7862 76.4659 57.7455 76.4405 57.705L76.3789 57.6048C76.3463 57.5564 76.3107 57.5108 76.2753 57.4643L76.2225 57.3948C76.1681 57.3279 76.1087 57.2614 76.0449 57.1977L70.9572 52.1097C70.0773 51.2307 69.0395 50.5682 67.8706 50.1422L54.4565 45.2473C54.2515 45.1727 54.0616 45.0486 53.9071 44.8886L50.3034 41.0956L50.4432 40.674C50.5752 40.2746 50.5905 39.8485 50.4874 39.4427C50.4006 39.097 50.2354 38.786 49.9978 38.5179L30.7992 16.9361C30.676 16.7971 30.5063 16.7181 30.3217 16.7129C30.1352 16.6854 29.9621 16.776 29.8317 16.9071L16.8358 29.9032C16.7075 30.0324 16.6378 30.2033 16.6407 30.3851C16.6442 30.5671 16.719 30.736 16.8516 30.8606L26.3165 39.7145C26.8236 38.8261 27.7691 38.2203 28.8651 38.2203H33.4942C35.1211 38.2203 36.4396 39.5388 36.4396 41.1658C36.4396 42.7927 35.1211 44.1114 33.4942 44.1114H38.8908C40.5177 44.1114 41.8364 45.4302 41.8364 47.0569C41.8364 48.6834 40.5184 50.0015 38.8921 50.0023H42.3273C43.9543 50.0023 45.2732 51.3211 45.2732 52.948C45.2732 54.5747 43.9543 55.8934 42.3273 55.8934H44.6619C46.2888 55.8934 47.6076 57.2122 47.6076 58.8391C47.6076 60.3908 46.4037 61.6481 44.8816 61.7624V68.3305C44.8816 69.5298 45.8235 70.5395 46.9824 70.5806C47.2068 70.5885 47.4445 70.5595 47.6672 70.4952C47.7736 70.4647 47.8744 70.425 47.9722 70.3792C48.1048 70.317 48.1961 70.2633 48.283 70.2044C48.4026 70.1198 48.4853 70.0546 48.5614 69.9828L48.5998 69.9459C48.6622 69.8828 48.7208 69.8146 48.7758 69.7436C48.8721 69.6155 48.9303 69.5285 48.9802 69.4371C49.0375 69.3226 49.0766 69.2344 49.11 69.1421C49.1614 68.9953 49.1859 68.8951 49.2049 68.7923C49.2302 68.6227 49.2426 68.5146 49.2426 68.4038V68.4014H50.7267V71.5423C50.7267 72.7445 51.7048 73.7228 52.9072 73.7228C53.1086 73.7228 53.3122 73.6932 53.5123 73.6358L53.5775 73.6162C53.6549 73.5909 53.7159 73.5685 53.7751 73.5431C53.8608 73.5039 53.9288 73.4677 53.9955 73.4293L54.0558 73.3931C54.1049 73.3626 54.1594 73.3249 54.2129 73.2859C54.5499 73.0192 54.7767 72.7227 54.9174 72.39C55.0278 72.13 55.0845 71.8505 55.087 71.5615L55.0941 69.8022L56.5839 69.8112L56.5718 71.5532H56.5724V73.041C56.5724 74.2401 57.5145 75.2489 58.6726 75.2903C59.0146 75.3005 59.3474 75.2351 59.6611 75.0895C59.795 75.027 59.8864 74.9742 59.9732 74.9156C60.0929 74.8301 60.1733 74.767 60.2473 74.6969C60.3349 74.6142 60.4037 74.5345 60.4683 74.4518C60.5625 74.3271 60.6203 74.2395 60.6712 74.1468C60.729 74.0336 60.7699 73.9402 60.8044 73.8432C60.853 73.7053 60.8777 73.6011 60.8971 73.4952C60.9212 73.3359 60.9334 73.2249 60.9334 73.1111H60.9436V70.4966H62.4277L62.4175 73.6561V74.6758C62.4175 75.8781 63.3958 76.8563 64.599 76.8563C64.7996 76.8563 65.0032 76.8266 65.2031 76.7684L65.3054 76.7397C65.3459 76.725 65.4032 76.7034 65.4599 76.6787C65.5578 76.6339 65.6192 76.6018 65.6793 76.567L65.7475 76.5259C65.7976 76.4945 65.8483 76.4598 65.8982 76.4229C66.4779 75.9649 66.7793 75.3431 66.7793 74.6758V59.1607Z" fill="#FEFEFE"/>
</g>
<mask id="mask1_23_129" style="mask-type:alpha" maskUnits="userSpaceOnUse" x="66" y="60" width="20" height="26">
<path d="M66.7051 60.5139H85.181V85.28H66.7051V60.5139Z" fill="white"/>
</mask>
<g mask="url(#mask1_23_129)">
<path fill-rule="evenodd" clip-rule="evenodd" d="M84.7509 74.6118L81.1963 71.3095L81.1974 71.3085L73.6964 64.341C72.8877 64.1789 72.1363 63.816 71.5362 63.2573L68.5905 60.5139L68.5852 75.3132C68.5852 76.3903 68.0626 77.3942 67.1513 78.0669L67.0517 78.1359C66.9744 78.1899 66.8848 78.247 66.7925 78.2998L66.7051 78.3491L69.2072 80.6736L69.2067 80.674L73.7345 84.8802C74.3089 85.414 75.2407 85.4132 75.8138 84.8784L84.7531 76.5393C85.3244 76.0061 85.3236 75.1438 84.7509 74.6118Z" fill="#FEFEFE"/>
</g>
<path fill-rule="evenodd" clip-rule="evenodd" d="M36.6851 55.7597C34.9994 55.7597 33.6333 54.6425 33.6333 53.2644C33.6333 52.8007 33.7982 52.3718 34.0674 52C33.584 52.4422 33.2812 53.0197 33.2812 53.6596C33.2812 55.0406 34.6502 56.16 36.3392 56.16H39.9531C40.4292 55.9092 40.9928 55.7597 41.6012 55.7597H36.6851Z" fill="#FEFEFE"/>
<path fill-rule="evenodd" clip-rule="evenodd" d="M41.0869 61.9852C39.2764 61.9852 37.8091 60.8552 37.8091 59.4613C37.8091 59.0157 37.9715 58.6033 38.2348 58.24C37.7469 58.6814 37.4414 59.246 37.4414 59.871C37.4414 61.2676 38.9118 62.4 40.7259 62.4H43.6814V61.9852H41.0869Z" fill="#FEFEFE"/>
<path fill-rule="evenodd" clip-rule="evenodd" d="M32.1437 49.5336C30.65 49.5336 29.4395 48.4271 29.4395 47.0621C29.4395 46.5826 29.5953 46.1391 29.8538 45.76C29.4025 46.2024 29.1211 46.7913 29.1211 47.4437C29.1211 48.8114 30.3342 49.92 31.8306 49.92H33.9224C34.3398 49.6788 34.8306 49.5337 35.3611 49.5336H32.1437Z" fill="#FEFEFE"/>
<path fill-rule="evenodd" clip-rule="evenodd" d="M28.7478 45.2215C26.9723 45.2215 25.5326 43.7855 25.3946 41.9661L25.0206 41.6001C24.9861 41.8019 24.9609 42.007 24.9609 42.219C24.9609 44.1747 26.4772 45.7601 28.3476 45.7601H31.5052C32.0225 45.4243 32.6274 45.2215 33.2809 45.2215H28.7478Z" fill="#FEFEFE"/>
<path fill-rule="evenodd" clip-rule="evenodd" d="M53.0219 39.3937C53.1526 39.921 53.1658 40.4675 53.0636 40.9984L55.992 44.148L60.3198 45.7601L57.6804 38.3679C57.2282 37.1021 56.5104 35.952 55.5771 34.9999L50.8259 30.1442C50.158 29.462 49.283 29.1201 48.4076 29.1201C47.5322 29.1201 46.6572 29.4618 45.9893 30.1442C45.9018 30.2336 45.8352 30.3344 45.7598 30.4308L52.2239 37.8552C52.606 38.2948 52.8824 38.827 53.0219 39.3937Z" fill="#FEFEFE"/>
</svg>