<svg xmlns="http://www.w3.org/2000/svg" width="292" height="256pt" viewBox="0 0 1097 1281"><g fill="#377a2a"><path d="M537 5c7-4 16-4 21 1 5 4 7 11 7 17v183l14 24 20 34c8 15 16 30 16 47 1 16-6 31-16 43l-26 28-26 26-42-41c-9-11-18-21-23-34-4-12-4-25 0-36 6-20 17-39 27-57l19-34V22c0-7 3-14 9-17m-23 291c-4 12-5 25 0 36 7 14 20 24 33 31 10-9 22-17 30-28 5-9 6-20 3-30-4-16-12-31-21-45v-4l-2 1-10-16c-12 18-25 35-33 55Z"/><path d="M673 120c9-4 20-1 26 6 3 4 2 9 3 14v294l-1 27c0 11 1 22-4 32-6 13-19 22-32 29-21 13-45 23-68 32-11 4-21 8-32 10l-1-62c0-15-2-30 1-44 2-15 11-28 20-39 20-21 42-39 62-60 6-7 11-14 14-23 4-13 3-26 4-39V134c0-6 3-12 8-14m-54 316c-10 9-18 21-20 34-2 15-1 30 0 45l21-7c11-5 23-9 32-18 8-7 11-18 12-28 2-19 1-39-1-59-15 10-31 20-44 33ZM400 120c7-3 15-3 21 2 4 3 6 7 6 12v177c0 10 1 21 5 30 5 11 14 19 22 27l47 46c9 10 18 21 23 33 3 10 4 21 4 31l-2 86a541 541 0 0 1-110-47c-10-7-20-16-24-28-4-13 0-27-2-41-2-36-1-73-1-109V198l1-62c0-7 4-13 10-16m28 283-2 33c0 15-1 31 6 44 5 11 16 18 27 22l33 14c1-15 2-29 1-44-2-13-9-24-18-33-13-15-30-25-47-36ZM1053 463c13-7 26-16 37-26a276 276 0 0 1-137 172c-25 13-51 23-78 31-23 6-47 11-71 15l-109 22c-36 8-72 18-105 36-9 4-17 10-25 15 2-19 0-39 0-58 0-17 0-35 6-51s17-28 30-38c17-13 38-22 58-29 39-14 81-20 122-25 34-5 69-8 103-14 31-6 63-12 94-20 26-8 51-17 75-30m-57 64-36 12c-62 18-125 26-188 36-35 6-70 11-104 21-18 5-38 13-52 27a83 83 0 0 0-19 44c24-9 48-17 73-22l103-22c33-6 66-13 98-22 25-8 50-17 72-31 20-12 38-26 53-43ZM1 437c17 16 36 27 57 36 40 18 83 28 126 36 26 4 51 9 77 12 45 6 91 10 135 21 24 5 47 13 68 24 15 7 29 16 40 29 10 10 16 23 19 37 6 32-1 64 3 96-13-9-27-17-42-23-25-12-51-19-78-26-44-10-89-18-134-26l-62-14c-40-12-78-30-111-55A270 270 0 0 1 1 437m94 91a299 299 0 0 0 131 75c46 13 94 21 141 30 42 9 85 18 126 34-3-16-8-32-19-44-12-12-27-19-43-24-20-7-40-12-61-15l-136-22c-47-8-94-18-139-34Z"/><path d="M44 575c14 14 28 28 45 39 32 23 70 34 108 45 66 20 134 30 201 46 22 5 45 10 66 19 15 7 30 16 40 29s15 30 16 46c2 19 0 38 2 57l-1 81H402v-64c0-11-2-22-9-30-8-11-21-17-33-21-23-7-47-11-71-17-23-6-45-13-68-21-53-18-102-51-135-97-24-33-38-72-42-112m76 98c7 12 16 22 25 31 25 23 57 37 89 49 41 14 83 24 125 35 20 5 40 11 57 22 11 7 19 19 20 32 2 19 3 38 2 57h48l1-65c-1-18-3-38-14-53-8-12-20-20-33-26-12-5-25-7-38-10l-155-32c-44-9-86-22-127-40ZM989 622c20-13 39-29 55-47-4 39-17 77-40 109-31 45-77 79-128 97l-67 22c-26 8-54 11-81 19-12 4-24 10-32 20-7 8-10 19-10 29v67H567l-1-48 1-45v-38c1-18 6-37 17-52 9-13 22-22 36-29 21-9 44-15 66-20 60-14 121-24 180-39l60-18c22-7 43-15 63-27m-119 85-78 17-110 22c-13 3-26 6-38 11-15 7-27 18-34 32-7 16-8 33-8 50v60h48c-1-18 0-35 1-53 1-10 4-20 11-28 9-10 22-15 34-20l46-13 85-23c36-11 72-24 103-47 15-11 28-25 38-42-32 14-64 25-98 34ZM214 1061c23-3 46-1 67 8l-3 35a92 92 0 0 0-68-7c-15 4-28 15-36 29s-11 29-11 45c1 20 8 42 24 55 14 12 32 17 50 17 14-1 29-3 43-9l1 35c-4 2-9 2-13 3-26 5-53 5-79-2-16-5-32-13-44-26a97 97 0 0 1-25-61c-2-26 2-53 15-76 8-13 20-24 33-32 14-8 30-12 46-14ZM377 1065a197 197 0 0 1 100 4l-2 35c-13-6-27-9-41-10-13-1-26-1-39 3-15 4-28 13-37 26a87 87 0 0 0-10 68c5 18 17 35 34 44 19 10 41 9 62 5v-54l-44-1v-33h84v113c-21 6-43 10-65 11-20 0-41-3-60-11-17-7-33-19-42-35-13-20-16-44-15-67s8-47 23-65c13-17 32-28 52-33ZM524 1064h42v208h-42v-208ZM670 1064h47l82 208h-47l-17-48h-84l-18 48h-44l75-192 6-16m23 42-11 31-19 54h60l-11-30-19-55ZM822 1064h48c19 0 39-1 58 4 10 3 19 7 25 15 6 6 9 14 11 21 3 13 2 27-4 39-7 14-22 24-37 26 5 1 10 4 14 8 6 8 9 18 13 27l28 68h-47l-24-62c-3-8-6-17-14-21-9-5-19-3-29-4v87h-42v-208m42 32v57c12-1 24 0 36-3 6-1 13-4 17-9 5-8 6-17 4-26-2-8-10-14-18-16-13-3-26-2-39-3Z"/></g></svg>